<svg xmlns="http://www.w3.org/2000/svg" viewBox="0 0 251.7 245"><path fill="none" stroke="#010101" stroke-width="5.15" d="M187.3 29.6H64.4L3 136l61.4 106.5h122.9L248.7 136z"/><path d="M81.5 162.1s3.4-5.9 2.5-9.6c-.9-3.7-.3-7.5-6.2-7.2s-28 2.8-28 2.8-3.1 7.5 1.2 12.1c4.4 4.7 4.8 12.1 0 14.3-4.8 2.2-6.2 10-.9 10.3 5.3.3-1.2 7.8 4.4 8.7 5.6.9-2.8 6.7 1.6 9.3 4.4 2.6-7.2 15.9-2.2 21.5s45.1 7.5 51.7 0c6.5-7.5 8.7-18.8 8.7-18.8s12.8 2.2 20.5 1.1c7.8-1.1 17.4-5.9 17.4-5.9s10.6 19.6 24.3 17.1c13.7-2.5 41.7-14.9 35.5-21.8l-6.2-6.8s6.5-6.5.9-10.6c-5.6-4 10.9-6.2 3.7-17.4s1.6-9.6.9-17.1c-.6-7.5-4-10.3-4-10.3s5.3-17.7.3-17.7-3.7-2.2-6.5-5.6c-2.8-3.4-10.3-5.9-10.3-5.9l-2.5-5.9-18.1 12.8s1.6 6.8 5.3 11.2c3.7 4.4 7.8 6.2 7.8 6.2s-6.2 8.7-4 11.5c2.2 2.8 3.1 5.3 3.1 5.3s-27.1-2.2-35.5-2.2c-8.4 0-10.6 6.5-10.6 6.5s-2.8-5.6-6.5-5.6-20.5 10.3-26.1 13.1c-5.7 2.7-14.4 8.3-22.2 4.6"/><path d="M110.4 167.2l49.1-9.5s-1.5 26.6-22.7 27.9c-21.2 1.3-26.4-18.4-26.4-18.4" fill="#fff"/><path d="M16.8 61.2s13.4-24.9 27.7-40.1C58.8 5.8 62.6 2.1 64.1 2.7c1.6.6 38.3 24.9 52.6 35.5 14.3 10.6 34.5 25.5 34.5 25.5s23-6.5 39.5-5.9c16.5.6 26.5.6 30.5 4.4 4 3.7-12.4 18.1-20.2 25.5-7.8 7.5-24.6 25.5-79.1 44.8-54.5 19.3-93.4 15.9-99.3 15.2-5.9-.6-11.8-4-3.7-13.7 8.1-9.6 22.4-24.3 30.8-29.3 8.4-5 14.6-8.4 14.6-8.4s-1.6-27.1-5-35.8c-3.4-8.7-3.7-8.7-3.7-8.7s-11.8-.3-20.9 2.8c-8.9 3.2-17.9 6.6-17.9 6.6" fill="#f9f9fa"/><path d="M16.8 61.2s13.4-24.9 27.7-40.1C58.8 5.8 62.6 2.1 64.1 2.7c1.6.6 38.3 24.9 52.6 35.5 14.3 10.6 34.5 25.5 34.5 25.5s23-6.5 39.5-5.9c16.5.6 26.5.6 30.5 4.4 4 3.7-12.4 18.1-20.2 25.5-7.8 7.5-24.6 25.5-79.1 44.8-54.5 19.3-93.4 15.9-99.3 15.2-5.9-.6-11.8-4-3.7-13.7 8.1-9.6 22.4-24.3 30.8-29.3 8.4-5 14.6-8.4 14.6-8.4s-1.6-27.1-5-35.8c-3.4-8.7-3.7-8.7-3.7-8.7s-11.8-.3-20.9 2.8c-8.9 3.2-17.9 6.6-17.9 6.6z" fill="none" stroke="#000" stroke-width="5.286"/></svg>