<?xml version="1.0" encoding="utf-8"?>
<!-- Generator: Adobe Illustrator 19.2.1, SVG Export Plug-In . SVG Version: 6.00 Build 0)  -->
<!DOCTYPE svg PUBLIC "-//W3C//DTD SVG 1.1//EN" "http://www.w3.org/Graphics/SVG/1.1/DTD/svg11.dtd">
<svg version="1.1" id="Layer_1" xmlns="http://www.w3.org/2000/svg" xmlns:xlink="http://www.w3.org/1999/xlink" x="0px" y="0px"
	 viewBox="0 0 251.7 245" style="enable-background:new 0 0 251.7 245;" xml:space="preserve">
<style type="text/css">
	.st0{fill:none;stroke:#010101;stroke-width:5.15;}
	.st1{fill:#FFFFFF;}
	.st2{fill:#F9F9FA;}
	.st3{fill:none;stroke:#000000;stroke-width:5.286;}
</style>
<g>
	<polygon class="st0" points="187.3,29.6 64.4,29.6 3,136 64.4,242.5 187.3,242.5 248.7,136 	"/>
	<path d="M81.5,162.1c0,0,3.4-5.9,2.5-9.6c-0.9-3.7-0.3-7.5-6.2-7.2s-28,2.8-28,2.8s-3.1,7.5,1.2,12.1c4.4,4.7,4.8,12.1,0,14.3
		c-4.8,2.2-6.2,10-0.9,10.3c5.3,0.3-1.2,7.8,4.4,8.7c5.6,0.9-2.8,6.7,1.6,9.3c4.4,2.6-7.2,15.9-2.2,21.5s45.1,7.5,51.7,0
		c6.5-7.5,8.7-18.8,8.7-18.8s12.8,2.2,20.5,1.1c7.8-1.1,17.4-5.9,17.4-5.9s10.6,19.6,24.3,17.1c13.7-2.5,41.7-14.9,35.5-21.8
		l-6.2-6.8c0,0,6.5-6.5,0.9-10.6c-5.6-4,10.9-6.2,3.7-17.4c-7.2-11.2,1.6-9.6,0.9-17.1c-0.6-7.5-4-10.3-4-10.3s5.3-17.7,0.3-17.7
		c-5,0-3.7-2.2-6.5-5.6c-2.8-3.4-10.3-5.9-10.3-5.9l-2.5-5.9l-18.1,12.8c0,0,1.6,6.8,5.3,11.2c3.7,4.4,7.8,6.2,7.8,6.2
		s-6.2,8.7-4,11.5c2.2,2.8,3.1,5.3,3.1,5.3s-27.1-2.2-35.5-2.2c-8.4,0-10.6,6.5-10.6,6.5s-2.8-5.6-6.5-5.6
		c-3.7,0-20.5,10.3-26.1,13.1C98,160.2,89.3,165.8,81.5,162.1"/>
	<path class="st1" d="M110.4,167.2l49.1-9.5c0,0-1.5,26.6-22.7,27.9C115.6,186.9,110.4,167.2,110.4,167.2"/>
	<path class="st2" d="M16.8,61.2c0,0,13.4-24.9,27.7-40.1C58.8,5.8,62.6,2.1,64.1,2.7c1.6,0.6,38.3,24.9,52.6,35.5
		c14.3,10.6,34.5,25.5,34.5,25.5s23-6.5,39.5-5.9c16.5,0.6,26.5,0.6,30.5,4.4c4,3.7-12.4,18.1-20.2,25.5
		c-7.8,7.5-24.6,25.5-79.1,44.8c-54.5,19.3-93.4,15.9-99.3,15.2c-5.9-0.6-11.8-4-3.7-13.7c8.1-9.6,22.4-24.3,30.8-29.3
		c8.4-5,14.6-8.4,14.6-8.4s-1.6-27.1-5-35.8c-3.4-8.7-3.7-8.7-3.7-8.7s-11.8-0.3-20.9,2.8C25.8,57.8,16.8,61.2,16.8,61.2"/>
	<path class="st3" d="M16.8,61.2c0,0,13.4-24.9,27.7-40.1C58.8,5.8,62.6,2.1,64.1,2.7c1.6,0.6,38.3,24.9,52.6,35.5
		c14.3,10.6,34.5,25.5,34.5,25.5s23-6.5,39.5-5.9c16.5,0.6,26.5,0.6,30.5,4.4c4,3.7-12.4,18.1-20.2,25.5
		c-7.8,7.5-24.6,25.5-79.1,44.8c-54.5,19.3-93.4,15.9-99.3,15.2c-5.9-0.6-11.8-4-3.7-13.7c8.1-9.6,22.4-24.3,30.8-29.3
		c8.4-5,14.6-8.4,14.6-8.4s-1.6-27.1-5-35.8c-3.4-8.7-3.7-8.7-3.7-8.7s-11.8-0.3-20.9,2.8C25.8,57.8,16.8,61.2,16.8,61.2z"/>
</g>
</svg>
